<svg width="802" height="140" viewBox="0 0 802 140" fill="none" xmlns="http://www.w3.org/2000/svg">
<path d="M143.202 6.5L658.798 6.5C659.925 6.5 660.441 6.50009 660.945 6.5056C677.419 6.686 693.554 11.2164 707.714 19.6381C708.147 19.8956 708.588 20.164 709.55 20.7509L789.578 69.5396L709.722 118.924C708.752 119.524 708.308 119.799 707.871 120.062C693.597 128.672 677.281 133.31 660.613 133.494C660.103 133.5 659.581 133.5 658.44 133.5L143.56 133.5C142.419 133.5 141.897 133.5 141.387 133.494C124.719 133.31 108.403 128.672 94.1288 120.062C93.6924 119.799 93.2484 119.524 92.278 118.924L12.4221 69.5396L92.4495 20.7509C93.4122 20.164 93.8526 19.8956 94.2856 19.6381C108.446 11.2164 124.581 6.686 141.055 6.5056C141.559 6.50009 142.075 6.5 143.202 6.5Z" fill="#529DE4" stroke="#A8A8A8" stroke-width="13"/>
</svg>
