<svg width="1707" height="140" viewBox="0 0 1707 140" fill="none" xmlns="http://www.w3.org/2000/svg">
<rect y="63" width="1707" height="13" fill="#A8A8A8"/>
<path d="M619.202 6.5L1134.8 6.5C1135.93 6.5 1136.44 6.50009 1136.94 6.5056C1153.42 6.686 1169.55 11.2164 1183.71 19.6381C1184.15 19.8956 1184.59 20.164 1185.55 20.7509L1265.58 69.5396L1185.72 118.924C1184.75 119.524 1184.31 119.799 1183.87 120.062C1169.6 128.672 1153.28 133.31 1136.61 133.494C1136.1 133.5 1135.58 133.5 1134.44 133.5L619.56 133.5C618.419 133.5 617.897 133.5 617.387 133.494C600.719 133.31 584.403 128.672 570.129 120.062C569.692 119.799 569.248 119.524 568.278 118.924L488.422 69.5396L568.45 20.7509C569.412 20.164 569.853 19.8956 570.286 19.6381C584.446 11.2164 600.581 6.686 617.055 6.5056C617.559 6.50009 618.075 6.5 619.202 6.5Z" fill="#529DE4" stroke="#A8A8A8" stroke-width="13"/>
</svg>
