<svg width="1400" height="105" viewBox="0 0 1400 105" fill="none" xmlns="http://www.w3.org/2000/svg">
<rect y="46" width="1400" height="13" fill="#A8A8A8"/>
<path d="M514.489 6.76138L885.511 6.76138C886.638 6.76138 887.154 6.76147 887.658 6.76698C904.133 6.94739 920.267 11.4778 934.428 19.8996C934.861 20.1571 935.301 20.4255 936.264 21.0124L987.578 52.2962L936.435 83.924C935.465 84.5242 935.021 84.7986 934.584 85.0618C920.311 93.672 903.994 98.3096 887.326 98.4943C886.816 98.4999 886.294 98.5 885.153 98.5L514.847 98.5C513.706 98.5 513.184 98.4999 512.674 98.4943C496.006 98.3096 479.689 93.672 465.416 85.0618C464.979 84.7986 464.535 84.5242 463.565 83.924L412.422 52.2962L463.736 21.0124C464.699 20.4255 465.139 20.1571 465.572 19.8996C479.733 11.4778 495.867 6.94739 512.342 6.76698C512.846 6.76147 513.362 6.76138 514.489 6.76138Z" fill="#529DE4" stroke="#A8A8A8" stroke-width="13"/>
</svg>
