<svg width="650" height="105" viewBox="0 0 650 105" fill="none" xmlns="http://www.w3.org/2000/svg">
<rect y="46" width="650" height="13" fill="#A8A8A8"/>
<path d="M139.847 98.5C138.706 98.5 138.184 98.4999 137.674 98.4943C121.006 98.3096 104.689 93.672 90.4155 85.0618C89.9792 84.7986 89.5352 84.5242 88.5647 83.924L37.4221 52.2962L88.7363 21.0124L85.3528 15.4624L88.7363 21.0124C89.699 20.4255 90.1394 20.1571 90.5723 19.8996C104.733 11.4778 120.867 6.94739 137.342 6.76698C137.846 6.76147 138.362 6.76138 139.489 6.76138L510.511 6.76138C511.638 6.76138 512.154 6.76147 512.658 6.76698C529.133 6.94739 545.267 11.4778 559.428 19.8996C559.861 20.157 560.301 20.4256 561.264 21.0123L564.647 15.4625L561.264 21.0124L612.578 52.2962L561.435 83.924C560.465 84.5241 560.021 84.7986 559.584 85.0619C545.311 93.672 528.994 98.3096 512.326 98.4943C511.816 98.4999 511.294 98.5 510.153 98.5L139.847 98.5Z" fill="#529DE4" stroke="#A8A8A8" stroke-width="13"/>
</svg>
